<?xml version="1.0" encoding="utf-8"?>
<!-- Generator: Adobe Illustrator 15.0.0, SVG Export Plug-In . SVG Version: 6.00 Build 0)  -->
<!DOCTYPE svg PUBLIC "-//W3C//DTD SVG 1.1//EN" "http://www.w3.org/Graphics/SVG/1.1/DTD/svg11.dtd">
<svg version="1.1" id="Layer_1" xmlns="http://www.w3.org/2000/svg" xmlns:xlink="http://www.w3.org/1999/xlink" x="0px" y="0px"
	 width="27.313px" height="27.314px" viewBox="0 0 27.313 27.314" enable-background="new 0 0 27.313 27.314" xml:space="preserve">
<path fill="#231F20" d="M13.656,0C6.114,0,0,6.114,0,13.656C0,21.2,6.114,27.314,13.656,27.314S27.313,21.2,27.313,13.656
	C27.313,6.114,21.198,0,13.656,0z M18.689,14.342l-7.021,7.028c-0.186,0.185-0.429,0.285-0.686,0.285
	c-0.256,0-0.506-0.103-0.687-0.282c-0.184-0.184-0.285-0.426-0.285-0.685c0-0.26,0.101-0.503,0.284-0.687l6.338-6.346l-6.338-6.344
	c-0.184-0.184-0.284-0.427-0.284-0.686c0-0.258,0.102-0.5,0.284-0.683c0.365-0.367,1.006-0.367,1.373,0l7.021,7.027
	C19.067,13.35,19.067,13.964,18.689,14.342z"/>
</svg>
