<?xml version="1.0" encoding="utf-8"?>
<!-- Generator: Adobe Illustrator 15.0.0, SVG Export Plug-In . SVG Version: 6.00 Build 0)  -->
<!DOCTYPE svg PUBLIC "-//W3C//DTD SVG 1.1//EN" "http://www.w3.org/Graphics/SVG/1.1/DTD/svg11.dtd">
<svg version="1.1" id="Layer_1" xmlns="http://www.w3.org/2000/svg" xmlns:xlink="http://www.w3.org/1999/xlink" x="0px" y="0px"
	 width="33.332px" height="33.329px" viewBox="0 0 33.332 33.329" enable-background="new 0 0 33.332 33.329" xml:space="preserve">
<path d="M9.522,6.547c0.329,0,0.595-0.268,0.595-0.597V4.165h11.904V2.977H10.117V0.594C10.117,0.266,9.852,0,9.522,0
	S8.928,0.266,8.928,0.594V5.95C8.928,6.279,9.193,6.547,9.522,6.547z"/>
<path d="M32.141,30.354h-0.002c0,0.985-0.801,1.785-1.785,1.785H2.977c-0.986,0-1.785-0.803-1.785-1.785V12.499v-1.191V5.95
	c0-0.984,0.801-1.785,1.785-1.785h4.761V2.977H2.977C1.336,2.977,0,4.312,0,5.95v24.403c0,1.641,1.336,2.976,2.977,2.976h27.379
	c1.641,0,2.977-1.335,2.977-2.976V5.95c-0.002-1.643-1.336-2.974-2.979-2.974h-5.952V0.594C24.401,0.266,24.137,0,23.808,0
	s-0.596,0.266-0.596,0.594V5.95c0,0.329,0.267,0.597,0.596,0.597s0.594-0.268,0.594-0.597V4.165h5.952
	c0.985,0,1.785,0.804,1.785,1.785"/>
<g>
	<path d="M7.646,12.446h1.971c0.203,0,0.373,0.049,0.51,0.145s0.229,0.226,0.275,0.388l2.145,7.542
		c0.053,0.187,0.101,0.389,0.144,0.606c0.044,0.218,0.086,0.449,0.127,0.693c0.046-0.244,0.097-0.476,0.152-0.693
		c0.055-0.218,0.114-0.42,0.179-0.606l2.477-7.542c0.046-0.134,0.138-0.256,0.274-0.366s0.304-0.166,0.501-0.166h0.689
		c0.203,0,0.372,0.049,0.506,0.145c0.133,0.096,0.227,0.226,0.278,0.388l2.459,7.542c0.128,0.372,0.238,0.785,0.331,1.238
		c0.041-0.227,0.083-0.444,0.127-0.654c0.043-0.209,0.088-0.403,0.135-0.584l2.146-7.542c0.04-0.146,0.131-0.271,0.27-0.375
		c0.14-0.104,0.309-0.157,0.506-0.157h1.84l-3.915,12.608h-2.118l-2.756-8.614c-0.034-0.11-0.071-0.229-0.108-0.357
		c-0.038-0.128-0.074-0.265-0.109-0.41c-0.035,0.146-0.071,0.282-0.109,0.41c-0.037,0.128-0.073,0.247-0.108,0.357l-2.781,8.614
		h-2.119L7.646,12.446z"/>
</g>
</svg>
