<?xml version="1.0" encoding="utf-8"?>
<!-- Generator: Adobe Illustrator 15.0.0, SVG Export Plug-In . SVG Version: 6.00 Build 0)  -->
<!DOCTYPE svg PUBLIC "-//W3C//DTD SVG 1.1//EN" "http://www.w3.org/Graphics/SVG/1.1/DTD/svg11.dtd">
<svg version="1.1" id="Layer_1" xmlns="http://www.w3.org/2000/svg" xmlns:xlink="http://www.w3.org/1999/xlink" x="0px" y="0px"
	 width="33.332px" height="33.329px" viewBox="0 0 33.332 33.329" enable-background="new 0 0 33.332 33.329" xml:space="preserve">
<path d="M9.522,6.547c0.329,0,0.595-0.268,0.595-0.597V4.165h11.904V2.977H10.117V0.594C10.117,0.266,9.852,0,9.522,0
	S8.928,0.266,8.928,0.594V5.95C8.928,6.279,9.193,6.547,9.522,6.547z"/>
<path d="M32.141,30.354h-0.002c0,0.985-0.801,1.785-1.785,1.785H2.977c-0.986,0-1.785-0.803-1.785-1.785V12.499v-1.191V5.95
	c0-0.984,0.801-1.785,1.785-1.785h4.761V2.977H2.977C1.336,2.977,0,4.312,0,5.95v24.403c0,1.641,1.336,2.976,2.977,2.976h27.379
	c1.641,0,2.977-1.335,2.977-2.976V5.95c-0.002-1.643-1.336-2.974-2.979-2.974h-5.952V0.594C24.401,0.266,24.137,0,23.808,0
	s-0.596,0.266-0.596,0.594V5.95c0,0.329,0.267,0.597,0.596,0.597s0.594-0.268,0.594-0.597V4.165h5.952
	c0.985,0,1.785,0.804,1.785,1.785"/>
<g>
	<path d="M16.436,20.403c0.084,0.2,0.167,0.402,0.248,0.605c0.082-0.209,0.166-0.415,0.253-0.619
		c0.088-0.203,0.181-0.397,0.279-0.584l3.731-6.984c0.047-0.087,0.095-0.156,0.145-0.209c0.049-0.052,0.104-0.09,0.165-0.113
		c0.062-0.023,0.13-0.038,0.205-0.044c0.075-0.005,0.166-0.009,0.271-0.009h1.77v12.608h-2.066v-8.144
		c0-0.151,0.005-0.317,0.014-0.497c0.009-0.181,0.021-0.363,0.039-0.55l-3.811,7.15c-0.087,0.162-0.2,0.289-0.34,0.379
		s-0.303,0.136-0.488,0.136h-0.322c-0.187,0-0.35-0.046-0.488-0.136c-0.14-0.09-0.253-0.217-0.341-0.379l-3.862-7.176
		c0.023,0.191,0.039,0.379,0.048,0.562c0.009,0.183,0.014,0.353,0.014,0.51v8.144H9.831V12.446h1.77
		c0.104,0,0.194,0.004,0.271,0.009c0.075,0.006,0.144,0.021,0.205,0.044c0.061,0.023,0.117,0.062,0.17,0.113
		c0.052,0.053,0.102,0.122,0.148,0.209l3.767,7.002C16.26,20.009,16.352,20.202,16.436,20.403z"/>
</g>
</svg>
