<?xml version="1.0" encoding="utf-8"?>
<!-- Generator: Adobe Illustrator 15.0.0, SVG Export Plug-In . SVG Version: 6.00 Build 0)  -->
<!DOCTYPE svg PUBLIC "-//W3C//DTD SVG 1.1//EN" "http://www.w3.org/Graphics/SVG/1.1/DTD/svg11.dtd">
<svg version="1.1" id="Layer_1" xmlns="http://www.w3.org/2000/svg" xmlns:xlink="http://www.w3.org/1999/xlink" x="0px" y="0px"
	 width="33.332px" height="33.329px" viewBox="0 0 33.332 33.329" enable-background="new 0 0 33.332 33.329" xml:space="preserve">
<path d="M9.522,6.547c0.329,0,0.595-0.268,0.595-0.597V4.165h11.904V2.977H10.117V0.594C10.117,0.266,9.852,0,9.522,0
	S8.928,0.266,8.928,0.594V5.95C8.928,6.279,9.193,6.547,9.522,6.547z"/>
<path d="M32.141,30.354h-0.002c0,0.985-0.801,1.785-1.785,1.785H2.977c-0.986,0-1.785-0.803-1.785-1.785V12.499v-1.191V5.95
	c0-0.984,0.801-1.785,1.785-1.785h4.761V2.977H2.977C1.336,2.977,0,4.312,0,5.95v24.403c0,1.641,1.336,2.976,2.977,2.976h27.379
	c1.641,0,2.977-1.335,2.977-2.976V5.95c-0.002-1.643-1.336-2.974-2.979-2.974h-5.952V0.594C24.401,0.266,24.137,0,23.808,0
	s-0.596,0.266-0.596,0.594V5.95c0,0.329,0.267,0.597,0.596,0.597s0.594-0.268,0.594-0.597V4.165h5.952
	c0.985,0,1.785,0.804,1.785,1.785"/>
<g>
	<path d="M23.268,18.751c0,0.924-0.154,1.772-0.463,2.546c-0.308,0.773-0.74,1.438-1.299,1.996c-0.558,0.559-1.229,0.991-2.014,1.3
		c-0.785,0.308-1.654,0.462-2.607,0.462h-4.812V12.446h4.812c0.953,0,1.822,0.156,2.607,0.467c0.784,0.312,1.456,0.744,2.014,1.299
		c0.559,0.556,0.991,1.22,1.299,1.993C23.113,16.978,23.268,17.826,23.268,18.751z M20.869,18.751c0-0.692-0.093-1.312-0.278-1.862
		c-0.187-0.549-0.451-1.014-0.794-1.395s-0.76-0.673-1.251-0.876c-0.491-0.204-1.045-0.306-1.661-0.306h-2.45v8.876h2.45
		c0.616,0,1.17-0.102,1.661-0.305s0.908-0.496,1.251-0.876c0.343-0.381,0.607-0.847,0.794-1.396
		C20.776,20.062,20.869,19.442,20.869,18.751z"/>
</g>
</svg>
