<?xml version="1.0" encoding="utf-8"?>
<!-- Generator: Adobe Illustrator 15.0.0, SVG Export Plug-In . SVG Version: 6.00 Build 0)  -->
<!DOCTYPE svg PUBLIC "-//W3C//DTD SVG 1.1//EN" "http://www.w3.org/Graphics/SVG/1.1/DTD/svg11.dtd">
<svg version="1.1" id="Layer_1" xmlns="http://www.w3.org/2000/svg" xmlns:xlink="http://www.w3.org/1999/xlink" x="0px" y="0px"
	 width="27.313px" height="27.314px" viewBox="0 0 27.313 27.314" enable-background="new 0 0 27.313 27.314" xml:space="preserve">
<path fill="#231F20" d="M0,13.656C0,21.2,6.115,27.314,13.657,27.314S27.313,21.2,27.313,13.656C27.313,6.114,21.199,0,13.657,0
	S0,6.114,0,13.656z M8.624,12.972l7.021-7.027c0.367-0.367,1.008-0.367,1.373,0c0.183,0.183,0.284,0.425,0.284,0.683
	c0,0.259-0.101,0.502-0.284,0.686l-6.338,6.344l6.338,6.346c0.184,0.184,0.284,0.427,0.284,0.687c0,0.259-0.102,0.501-0.285,0.685
	c-0.181,0.18-0.431,0.282-0.687,0.282c-0.257,0-0.5-0.101-0.686-0.285l-7.021-7.028C8.246,13.964,8.246,13.35,8.624,12.972z"/>
</svg>
