<?xml version="1.0" encoding="utf-8"?>
<!-- Generator: Adobe Illustrator 15.0.0, SVG Export Plug-In . SVG Version: 6.00 Build 0)  -->
<!DOCTYPE svg PUBLIC "-//W3C//DTD SVG 1.1//EN" "http://www.w3.org/Graphics/SVG/1.1/DTD/svg11.dtd">
<svg version="1.1" id="Layer_1" xmlns="http://www.w3.org/2000/svg" xmlns:xlink="http://www.w3.org/1999/xlink" x="0px" y="0px"
	 width="28.489px" height="32.631px" viewBox="0 0 28.489 32.631" enable-background="new 0 0 28.489 32.631" xml:space="preserve">
<g>
	<path fill="#999999" d="M28.061,7.843L14.675,0.114c-0.266-0.152-0.594-0.152-0.859,0L0.429,7.843C0.163,7.997,0,8.28,0,8.587
		v15.458c0,0.307,0.163,0.59,0.429,0.744l13.387,7.728c0.133,0.077,0.281,0.114,0.43,0.114s0.296-0.037,0.43-0.114l13.386-7.728
		c0.265-0.154,0.429-0.438,0.429-0.744V8.587C28.489,8.28,28.325,7.997,28.061,7.843z M15.104,14.828V2.346l10.81,6.241
		L15.104,14.828z M2.576,8.587l10.81-6.241v12.482L2.576,8.587z M12.527,16.315l-10.81,6.241V10.075L12.527,16.315z M25.913,24.045
		l-10.81,6.24V17.803L25.913,24.045z M15.964,16.315l10.809-6.24v12.481L15.964,16.315z M13.386,17.803v12.482l-10.81-6.242
		L13.386,17.803z"/>
</g>
</svg>
