<?xml version="1.0" encoding="utf-8"?>
<!-- Generator: Adobe Illustrator 15.0.0, SVG Export Plug-In . SVG Version: 6.00 Build 0)  -->
<!DOCTYPE svg PUBLIC "-//W3C//DTD SVG 1.1//EN" "http://www.w3.org/Graphics/SVG/1.1/DTD/svg11.dtd">
<svg version="1.1" id="Layer_1" xmlns="http://www.w3.org/2000/svg" xmlns:xlink="http://www.w3.org/1999/xlink" x="0px" y="0px"
	 width="24.635px" height="15.555px" viewBox="0 0 24.635 15.555" enable-background="new 0 0 24.635 15.555" xml:space="preserve">
<g id="Your_Icon_14_">
	<g>
		<path fill="#FFFFFF" d="M18.204,11.933c-0.312,0.308-0.319,0.811-0.014,1.125c0.308,0.314,0.812,0.32,1.126,0.014l4.179-4.081
			l1.14-1.112L23.522,6.74l-4.145-4.243c-0.307-0.313-0.811-0.32-1.125-0.014c-0.314,0.308-0.32,0.811-0.014,1.126L21.5,6.948H6.341
			c-0.44,0-0.797,0.355-0.797,0.795S5.9,8.539,6.341,8.539h15.34L18.204,11.933z"/>
	</g>
</g>
<g id="Your_Icon_13_">
	<g>
		<path fill="#FFFFFF" d="M1.169,15.555h11.859c0.646,0,1.17-0.523,1.17-1.169v-3.188h-1.74v1.628c0,0.629-0.51,1.138-1.139,1.138
			H2.877c-0.628,0-1.138-0.509-1.138-1.137V2.774c0-0.629,0.51-1.138,1.138-1.138h8.442c0.629,0,1.139,0.509,1.139,1.138V4.45h1.74
			V1.169c0-0.645-0.523-1.169-1.17-1.169H1.169C0.524,0,0,0.524,0,1.169v13.217C-0.001,15.031,0.522,15.555,1.169,15.555z"/>
	</g>
</g>
</svg>
