<?xml version="1.0" encoding="utf-8"?>
<!-- Generator: Adobe Illustrator 15.0.0, SVG Export Plug-In . SVG Version: 6.00 Build 0)  -->
<!DOCTYPE svg PUBLIC "-//W3C//DTD SVG 1.1//EN" "http://www.w3.org/Graphics/SVG/1.1/DTD/svg11.dtd">
<svg version="1.1" id="Layer_1" xmlns="http://www.w3.org/2000/svg" xmlns:xlink="http://www.w3.org/1999/xlink" x="0px" y="0px"
	 width="29.712px" height="29.712px" viewBox="0 0 29.712 29.712" enable-background="new 0 0 29.712 29.712" xml:space="preserve">
<g>
	<path d="M14.855,29.712c8.171,0,14.856-6.685,14.856-14.856C29.712,6.686,23.026,0,14.855,0C6.686,0,0,6.686,0,14.856
		C0,23.027,6.686,29.712,14.855,29.712z M14.855,2.123c7.004,0,12.734,5.73,12.734,12.733S21.859,27.59,14.855,27.59
		c-7.003,0-12.733-5.73-12.733-12.734S7.853,2.123,14.855,2.123z"/>
	<path d="M8.064,23.133l3.82-3.82c0.849,0.53,1.91,0.849,2.971,0.849c1.062,0,2.123-0.318,2.972-0.849l3.82,3.82l1.485-1.485
		l-3.82-3.82c0.531-0.849,0.85-1.91,0.85-2.971s-0.318-2.122-0.85-2.971l3.82-3.82l-1.485-1.486l-3.82,3.82
		c-0.849-0.531-1.91-0.849-2.972-0.849c-1.061,0-2.122,0.318-2.971,0.849l-3.82-3.82L6.579,8.065l3.82,3.82
		c-0.53,0.849-0.849,1.91-0.849,2.971s0.318,2.123,0.849,2.971l-3.82,3.82L8.064,23.133z M14.855,11.673
		c1.805,0,3.184,1.379,3.184,3.183c0,1.804-1.379,3.184-3.184,3.184c-1.804,0-3.183-1.379-3.183-3.184
		C11.673,13.052,13.052,11.673,14.855,11.673z"/>
</g>
</svg>
