<?xml version="1.0" encoding="utf-8"?>
<!-- Generator: Adobe Illustrator 15.0.0, SVG Export Plug-In . SVG Version: 6.00 Build 0)  -->
<!DOCTYPE svg PUBLIC "-//W3C//DTD SVG 1.1//EN" "http://www.w3.org/Graphics/SVG/1.1/DTD/svg11.dtd">
<svg version="1.1" id="Layer_1" xmlns="http://www.w3.org/2000/svg" xmlns:xlink="http://www.w3.org/1999/xlink" x="0px" y="0px"
	 width="47.593px" height="34.413px" viewBox="0 0 47.593 34.413" enable-background="new 0 0 47.593 34.413" xml:space="preserve">
<g>
	<path fill="#231F20" d="M12.823,19.497c3.951,0,7.166-3.216,7.166-7.168c0-3.951-3.215-7.166-7.166-7.166
		c-3.952,0-7.167,3.214-7.167,7.166C5.656,16.281,8.871,19.497,12.823,19.497z M12.823,6.663c3.124,0,5.666,2.542,5.666,5.666
		c0,3.125-2.542,5.668-5.666,5.668c-3.125,0-5.667-2.543-5.667-5.668C7.156,9.204,9.698,6.663,12.823,6.663z"/>
	<path fill="#231F20" d="M32.516,16.721c4.609,0,8.359-3.751,8.359-8.361C40.875,3.75,37.125,0,32.516,0s-8.359,3.75-8.359,8.359
		C24.157,12.97,27.907,16.721,32.516,16.721z M32.516,1.5c3.782,0,6.859,3.077,6.859,6.859c0,3.783-3.077,6.861-6.859,6.861
		s-6.859-3.078-6.859-6.861C25.657,4.577,28.734,1.5,32.516,1.5z"/>
	<path fill="#231F20" d="M32.516,18.481c-4.401,0-8.562,1.918-11.458,5.27c-2.32-1.94-5.228-3.006-8.215-3.006
		c-6.749,0-12.382,5.227-12.821,11.873c-0.075,0.438,0.047,0.884,0.334,1.225c0.305,0.361,0.756,0.57,1.237,0.57H45.76
		c0.477,0,0.925-0.186,1.261-0.523c0.371-0.371,0.574-0.888,0.572-1.473C46.97,24.602,40.347,18.481,32.516,18.481z M32.516,19.981
		c7.054,0,13.02,5.498,13.58,12.494c0,0.254-0.142,0.438-0.336,0.438H19.195c-0.085,0-0.167-0.036-0.215-0.094
		c-0.014-0.016-0.046-0.054-0.025-0.195c0.177-2.641,1.151-5.172,2.818-7.318l0.277-0.356l0.09-0.15
		C24.749,21.735,28.52,19.981,32.516,19.981z M12.843,22.245c2.662,0,5.242,0.947,7.291,2.672c-1.581,2.24-2.511,4.848-2.688,7.53
		c-0.027,0.153-0.03,0.31-0.011,0.466H1.593c-0.041,0-0.074-0.018-0.09-0.033c0,0-0.003-0.017,0.006-0.084
		C1.905,26.879,6.882,22.245,12.843,22.245z"/>
</g>
</svg>
