<?xml version="1.0" encoding="utf-8"?>
<!-- Generator: Adobe Illustrator 15.0.0, SVG Export Plug-In . SVG Version: 6.00 Build 0)  -->
<!DOCTYPE svg PUBLIC "-//W3C//DTD SVG 1.1//EN" "http://www.w3.org/Graphics/SVG/1.1/DTD/svg11.dtd">
<svg version="1.1" id="Layer_1" xmlns="http://www.w3.org/2000/svg" xmlns:xlink="http://www.w3.org/1999/xlink" x="0px" y="0px"
	 width="15.357px" height="15.357px" viewBox="0 0 15.357 15.357" enable-background="new 0 0 15.357 15.357" xml:space="preserve">
<g>
	<path fill="#FFFFFF" d="M14.963,8.665c0.238-0.262,0.394-0.604,0.395-0.987c0-0.381-0.155-0.724-0.396-0.984
		c-0.266-0.293-0.644-0.479-1.069-0.48L9.143,6.214l0.001-4.749C9.143,1.039,8.956,0.664,8.664,0.397
		C8.404,0.156,8.062,0.001,7.679,0C7.296,0.001,6.953,0.155,6.693,0.396c-0.29,0.268-0.479,0.643-0.479,1.07v4.748H1.466
		c-0.428,0-0.803,0.188-1.07,0.479C0.154,6.954,0,7.297,0,7.679c0.002,0.383,0.155,0.727,0.396,0.987
		c0.269,0.29,0.642,0.479,1.069,0.478h4.748l0.001,4.749c0,0.428,0.188,0.802,0.477,1.07c0.263,0.24,0.605,0.396,0.988,0.395
		c0.382,0,0.725-0.154,0.985-0.394c0.291-0.27,0.479-0.645,0.479-1.07V9.143l4.749,0.001C14.317,9.144,14.693,8.956,14.963,8.665z"
		/>
</g>
</svg>
