<?xml version="1.0" encoding="utf-8"?>
<!-- Generator: Adobe Illustrator 15.0.0, SVG Export Plug-In . SVG Version: 6.00 Build 0)  -->
<!DOCTYPE svg PUBLIC "-//W3C//DTD SVG 1.1//EN" "http://www.w3.org/Graphics/SVG/1.1/DTD/svg11.dtd">
<svg version="1.1" id="Layer_1" xmlns="http://www.w3.org/2000/svg" xmlns:xlink="http://www.w3.org/1999/xlink" x="0px" y="0px"
	 width="11.697px" height="11.698px" viewBox="0 0 11.697 11.698" enable-background="new 0 0 11.697 11.698" xml:space="preserve">
<g>
	<path fill="#FFFFFF" d="M11.696,1.395c-0.017-0.354-0.148-0.705-0.42-0.977c-0.269-0.27-0.621-0.402-0.977-0.416
		c-0.395-0.02-0.794,0.116-1.096,0.417L5.847,3.777L2.489,0.419C2.188,0.118,1.791-0.015,1.396,0.003
		C1.042,0.016,0.689,0.148,0.418,0.419c-0.27,0.271-0.403,0.622-0.417,0.976c-0.016,0.395,0.115,0.794,0.418,1.097l3.357,3.357
		L0.419,9.206c-0.303,0.302-0.435,0.7-0.418,1.096c0.014,0.354,0.147,0.706,0.417,0.977c0.272,0.269,0.624,0.403,0.978,0.418
		c0.396,0.016,0.792-0.115,1.094-0.418l3.357-3.357l3.359,3.357c0.302,0.302,0.7,0.434,1.094,0.419
		c0.355-0.016,0.708-0.148,0.978-0.419c0.271-0.271,0.403-0.622,0.419-0.976c0.015-0.396-0.117-0.795-0.419-1.095L7.918,5.849
		l3.358-3.357C11.578,2.189,11.711,1.791,11.696,1.395z"/>
</g>
</svg>
