<?xml version="1.0" encoding="utf-8"?>
<!-- Generator: Adobe Illustrator 15.0.0, SVG Export Plug-In . SVG Version: 6.00 Build 0)  -->
<!DOCTYPE svg PUBLIC "-//W3C//DTD SVG 1.1//EN" "http://www.w3.org/Graphics/SVG/1.1/DTD/svg11.dtd">
<svg version="1.1" id="Layer_1" xmlns="http://www.w3.org/2000/svg" xmlns:xlink="http://www.w3.org/1999/xlink" x="0px" y="0px"
	 width="27.122px" height="27.123px" viewBox="0 0 27.122 27.123" enable-background="new 0 0 27.122 27.123" xml:space="preserve">
<g>
	<path d="M15.524,4.028c-6.303,0-11.431,5.128-11.431,11.431c0,6.304,5.127,11.433,11.431,11.433
		c6.303,0,11.431-5.129,11.431-11.433C26.955,9.156,21.827,4.028,15.524,4.028z M15.524,24.926c-5.219,0-9.465-4.247-9.465-9.467
		c0-5.218,4.246-9.466,9.465-9.466c5.218,0,9.465,4.248,9.465,9.466C24.989,20.679,20.742,24.926,15.524,24.926z"/>
	<path d="M20.417,15.197h-3.895V8.517c0-0.543-0.439-0.981-0.982-0.981c-0.542,0-0.982,0.438-0.982,0.981v7.661
		c0,0.544,0.44,0.985,0.982,0.985l0,0h0.002h4.875c0.543,0,0.982-0.441,0.982-0.984C21.399,15.637,20.96,15.197,20.417,15.197z"/>
	<path d="M27.122,2.476c0-0.438-0.355-0.794-0.793-0.794s-0.795,0.356-0.795,0.794v0.934C22.761,1.202,19.349,0,15.751,0
		C11.545,0,7.589,1.64,4.613,4.615C1.638,7.589,0,11.545,0,15.753c0,4.207,1.638,8.164,4.613,11.137
		c0.155,0.155,0.358,0.233,0.561,0.233c0.204,0,0.406-0.078,0.562-0.233c0.31-0.309,0.31-0.812,0-1.122
		c-2.676-2.675-4.15-6.231-4.15-10.015s1.475-7.341,4.15-10.016c2.674-2.676,6.232-4.148,10.015-4.148
		c3.261,0,6.352,1.095,8.856,3.109h-0.979c-0.438,0-0.794,0.356-0.794,0.796c0,0.438,0.356,0.792,0.794,0.792h2.7
		c0.438,0,0.793-0.354,0.793-0.792c0-0.056-0.006-0.108-0.016-0.16V5.332c0.01-0.051,0.016-0.105,0.016-0.156l0,0V2.476
		L27.122,2.476z"/>
</g>
</svg>
