<?xml version="1.0" encoding="utf-8"?>
<!-- Generator: Adobe Illustrator 15.0.0, SVG Export Plug-In . SVG Version: 6.00 Build 0)  -->
<!DOCTYPE svg PUBLIC "-//W3C//DTD SVG 1.1//EN" "http://www.w3.org/Graphics/SVG/1.1/DTD/svg11.dtd">
<svg version="1.1" id="Layer_1" xmlns="http://www.w3.org/2000/svg" xmlns:xlink="http://www.w3.org/1999/xlink" x="0px" y="0px"
	 width="6.786px" height="11.292px" viewBox="0 0 6.786 11.292" enable-background="new 0 0 6.786 11.292" xml:space="preserve">
<path fill="#FFFFFF" d="M0.326,4.841c0.008,0,0.008-0.005,0.008-0.005l4.501-4.504c0.45-0.441,1.163-0.441,1.604,0
	c0.441,0.44,0.441,1.155,0,1.595L2.732,5.634l3.723,3.723c0.441,0.441,0.441,1.164,0,1.605c-0.441,0.441-1.154,0.441-1.604,0
	L0.334,6.44c0-0.004,0-0.004-0.008-0.004C0.115,6.216,0,5.925,0,5.634C0,5.352,0.115,5.061,0.326,4.841z"/>
</svg>
