<?xml version="1.0" encoding="utf-8"?>
<!-- Generator: Adobe Illustrator 15.0.0, SVG Export Plug-In . SVG Version: 6.00 Build 0)  -->
<!DOCTYPE svg PUBLIC "-//W3C//DTD SVG 1.1//EN" "http://www.w3.org/Graphics/SVG/1.1/DTD/svg11.dtd">
<svg version="1.1" id="Layer_1" xmlns="http://www.w3.org/2000/svg" xmlns:xlink="http://www.w3.org/1999/xlink" x="0px" y="0px"
	 width="46.117px" height="32.912px" viewBox="0 0 46.117 32.912" enable-background="new 0 0 46.117 32.912" xml:space="preserve">
<circle opacity="0.4" cx="12.094" cy="11.579" r="6.417"/>
<path opacity="0.4" d="M0.844,32.912h22.418c0.498,0,0.916-0.418,0.916-1.001c-0.502-6.248-5.75-11.166-12.084-11.166
	c-6.333,0-11.665,5.002-12.082,11.25C-0.074,32.494,0.344,32.912,0.844,32.912z"/>
<circle cx="31.787" cy="7.61" r="7.61"/>
<path d="M18.445,32.912h26.586c0.592,0,1.086-0.495,1.086-1.187c-0.592-7.412-6.818-13.244-14.33-13.244s-13.834,5.932-14.33,13.342
	C17.355,32.417,17.851,32.912,18.445,32.912z"/>
</svg>
