<?xml version="1.0" encoding="utf-8"?>
<!-- Generator: Adobe Illustrator 15.0.0, SVG Export Plug-In . SVG Version: 6.00 Build 0)  -->
<!DOCTYPE svg PUBLIC "-//W3C//DTD SVG 1.1//EN" "http://www.w3.org/Graphics/SVG/1.1/DTD/svg11.dtd">
<svg version="1.1" id="Layer_1" xmlns="http://www.w3.org/2000/svg" xmlns:xlink="http://www.w3.org/1999/xlink" x="0px" y="0px"
	 width="21.95px" height="21.951px" viewBox="0 0 21.95 21.951" enable-background="new 0 0 21.95 21.951" xml:space="preserve">
<path fill="#FFFFFF" d="M14.658,2.512c-3.349-3.349-8.799-3.349-12.147,0c-3.348,3.35-3.348,8.799,0,12.148
	c2.982,2.981,7.627,3.301,10.974,0.973c0.07,0.333,0.232,0.651,0.49,0.91l4.877,4.876c0.71,0.709,1.858,0.709,2.566,0
	c0.709-0.709,0.709-1.857,0-2.566l-4.877-4.877c-0.258-0.258-0.576-0.419-0.91-0.489C17.961,10.138,17.641,5.496,14.658,2.512z
	 M13.119,13.121c-2.5,2.5-6.568,2.5-9.068,0c-2.499-2.5-2.499-6.568,0-9.068c2.5-2.5,6.568-2.5,9.068,0
	C15.619,6.552,15.619,10.62,13.119,13.121z"/>
</svg>
