<?xml version="1.0" encoding="utf-8"?>
<!-- Generator: Adobe Illustrator 15.0.0, SVG Export Plug-In . SVG Version: 6.00 Build 0)  -->
<!DOCTYPE svg PUBLIC "-//W3C//DTD SVG 1.1//EN" "http://www.w3.org/Graphics/SVG/1.1/DTD/svg11.dtd">
<svg version="1.1" id="Layer_1" xmlns="http://www.w3.org/2000/svg" xmlns:xlink="http://www.w3.org/1999/xlink" x="0px" y="0px"
	 width="29.729px" height="27.406px" viewBox="0 0 29.729 27.406" enable-background="new 0 0 29.729 27.406" xml:space="preserve">
<g>
	<polygon points="20.729,0 20.729,2.406 9,2.406 9,0 20.729,0 	"/>
	<polygon points="26.729,5 26.729,7.406 3,7.406 3,5 26.729,5 	"/>
	<polygon points="29.729,10 29.729,12.406 0,12.406 0,10 29.729,10 	"/>
	<polygon points="29.729,15 29.729,17.406 0,17.406 0,15 29.729,15 	"/>
	<polygon points="26.729,20 26.729,22.406 3,22.406 3,20 26.729,20 	"/>
	<polygon points="20.729,25 20.729,27.406 9,27.406 9,25 20.729,25 	"/>
</g>
</svg>
